<svg xmlns="http://www.w3.org/2000/svg" viewBox="0 0 593.59 219.26"><g data-name="Слой 2"><path d="M226.55 76.09c-5.66 7.29-14.45 10.41-23.47 10.41-24.4 0-39.43-19-39.43-42.44C163.65 12.6 185.73 0 204.35 0c21.05 0 34.35 11.45 38.05 30.88H218a12.09 12.09 0 0 0-12-10.3c-17.46 0-16.88 18.39-16.88 24.06 0 7.74 3.12 21.27 18.62 21.27 5.89 0 11.91-3 13.18-9.13h-11.25V39.09h33.77v45.44h-16.08zM254.89 2h48.45c14.46 0 26.94 8 26.94 23.59 0 8.55-3.93 17.57-12.37 20.7 6.94 2.66 11.22 10.29 12.14 20.58.35 4 .47 13.88 2.78 17.69h-25.44a59.26 59.26 0 0 1-2.08-12.72c-.7-7.86-1.39-16.07-11.45-16.07h-13.53v28.76h-25.44zm25.44 36.08h13.3c4.74 0 11.22-.81 11.22-8.22 0-5.2-2.9-8.21-12.61-8.21h-11.91zM339.42 2h68.35v21.13h-42.91v10.29h39v19.66h-39v10.29H409v21.16h-69.58zm80.26 0H488v21.13h-42.9v10.29h39v19.66h-39v10.29h44.17v21.16h-69.59zm80.95 0h25.44v28.41h.23L549 2h31.3l-29.95 32.23 34.81 50.3h-31.69l-20.35-32.15-7 7.75v24.4h-25.49zM211.14 122.84c-.39-2.56-2.36-10.33-11.32-10.33-10.14 0-13.39 9.84-13.39 19.29s3.25 19.3 13.39 19.3c7.29 0 10.14-5.12 11.42-11.72h21.26c0 14.18-11.51 29.24-32.09 29.24-22.74 0-35.64-16.05-35.64-36.82 0-22.15 14-36.82 35.64-36.82 19.3.1 29.93 10.24 31.8 27.86zm48.92-26.18h21.17L306.82 167h-22.44l-3-10h-22.31l-3.14 10h-21.76zm17 45.18l-6.3-21.65h-.2l-6.79 21.65zm33.59-45.18h36.23c19.1 0 25.79 14 25.79 24 0 17-11.42 25-27.56 25h-12.8V167h-21.66zM332.31 129h8.37c5.61 0 11.52-.4 11.52-7.49 0-6.39-4.93-6.79-10.24-6.79h-9.65zM379 96.66h21.65V167H379zm48.2 18.01h-19.69v-18h61v18h-19.65V167H427.2zm60.54-18.01h21.17L534.5 167h-22.44l-3-10h-22.3l-3.15 10h-21.76zm17 45.18l-6.3-21.65h-.2l-6.79 21.65zm33.59-45.18H560v52.27h31.1v18h-52.77zm-366.69 81.67h17.53l5.71 23.52h.12l5.71-23.52h17.53v40h-11.66v-25.66h-.11l-6.94 25.64h-9.19l-6.94-25.64h-.11v25.64h-11.65zm63.45 0h12l14.56 40h-12.73l-1.68-5.71h-12.71l-1.79 5.71h-12.37zm9.69 25.7l-3.58-12.32h-.11L237.22 204zm19.16-25.7h12.6l11.65 21.39h.11v-21.39h11.64v40H288l-12.3-21.86h-.11v21.84h-11.65zm52.98 0h12l14.56 40h-12.73l-1.68-5.71h-12.71l-1.79 5.71h-12.38zm9.69 25.7L323 191.71h-.11L319.05 204zM375 214.22c-2.75 3.53-7 5-11.37 5-11.82 0-19.1-9.18-19.1-20.55 0-15.23 10.7-21.33 19.71-21.33 10.2 0 16.64 5.54 18.43 15h-11.82a5.85 5.85 0 0 0-5.82-5c-8.46 0-8.18 8.9-8.18 11.64 0 3.76 1.52 10.31 9 10.31 2.85 0 5.77-1.46 6.38-4.43h-5.43v-8.56h16.35v22h-7.78zm13.72-35.89h33.1v10.25H401v5h18.87v9.52H401v5h21.39v10.24h-33.67zm38.82 0h17.52l5.72 23.52h.11l5.71-23.52h17.53v40h-11.65v-25.66h-.11l-6.95 25.64h-9.18l-6.94-25.64h-.12v25.64h-11.64zm52.36 0H513v10.25h-20.78v5h18.87v9.52h-18.87v5h21.39v10.24H479.9zm38.93 0h12.6l11.64 21.39h.12v-21.39h11.64v40h-12l-12.26-21.84h-.11v21.84h-11.63zm51.24 10.25h-11.2v-10.25h34.72v10.25h-11.2v29.73h-12.32zm-449.13 8.11a77.53 77.53 0 0 0 18.46-18q10.17-13.78 10.18-34.1 0-19.87-13.87-36.13a59.64 59.64 0 0 0-14.77-11.84V62.31c7.51-5.53 11-14.82 9.18-25-1.33-6.53-2.75-9.93-8.39-15.11l-1-.81V9.79h21.07V2.28H0v7.51h20.92v18.6Q5.54 43.65 5.54 64.74a51.18 51.18 0 0 0 7.3 25.77 56.51 56.51 0 0 0 8.08 10.85V156h.41c-7.8 5.49-11.46 14.94-9.6 25.3 1.33 6.53 2.75 9.93 8.39 15.12l.8.67v12.44H.15V217h141.9v-7.5h-21.11zm-4.09 12.8h-8.38v-5.88c2.42-1.05 4.64-2.15 6.57-3.22.62-.35 1.21-.72 1.81-1.08zM40 195.75a18 18 0 0 0 3.2-.68v6.85c-2.53-.47-5-1-7.39-1.68v-4.5a19.57 19.57 0 0 0 4.19.01zm15.13-32.22a25.54 25.54 0 0 0-7.84-8.65v-37.13q9.41 3.89 22.11 8a158.78 158.78 0 0 1 24.22 9.54V200a48.34 48.34 0 0 1-21.26 4.43 180.6 180.6 0 0 1-25.07-1.79v-9.36a20 20 0 0 0 4.71-3.87c6.82-8.53 7.92-17.48 3.17-25.88zM104.37 22.7a18.36 18.36 0 0 0-2.57.13 18 18 0 0 0-4.29 1.06V16a63.17 63.17 0 0 1 6.86 1.24zM86.68 55.05a25.82 25.82 0 0 0 7 8v21.63c-3.65-1.21-7.48-2.39-11.53-3.52Q56.9 74.17 48 66.32c-.25-.23-.47-.46-.71-.69V27.21c6.13-5.4 9.09-7.86 26.24-11a84.73 84.73 0 0 1 19.85-.69v10.36h.22a20.41 20.41 0 0 0-3.77 3.29c-6.83 8.53-7.9 17.48-3.15 25.88zm17.69 137.57l-.17.19a39.74 39.74 0 0 1-6.47 4.95l-.09-60.32a47.37 47.37 0 0 1 6.73 4.71zm4.1-46.29a27.69 27.69 0 0 1 6.43 18.13 47.52 47.52 0 0 1-6.43 22.93zm-4.1-57.75c-2.17-.88-4.46-1.73-6.81-2.56V65.41a22.44 22.44 0 0 0 3.56 1.34 20.85 20.85 0 0 0 3.29.59zM43.24 60.91a22.65 22.65 0 0 1-4.05-12.2c-.23-6.12.83-12 4.05-16.85zm54.27-50.38v-.74h6.86v2.91a55.49 55.49 0 0 0-6.86-2.17zm-50.18 2V9.79h11.53a76.75 76.75 0 0 0-11.53 2.77zM43.24 14a69.45 69.45 0 0 0-7.51 3.45V9.79h7.51zm-11.6 137.46a23.16 23.16 0 0 0-6.64 2.29v-48.54a53.88 53.88 0 0 0 6.64 4.79zm4.09-39.08q3.38 1.78 7.51 3.63v36.67a21.82 21.82 0 0 0-2.47-.85 20.55 20.55 0 0 0-5-.7zm7.51 95.68v1.43h-7.39v-4c3.03 1.21 5.74 2.08 7.39 2.57zm4.09 1.06l1.87.37h-1.87zm46.33-.42v.79h-3.33c1.12-.25 2.23-.49 3.33-.79zm4.08-1.15c2.3-.69 4.53-1.45 6.63-2.26v4.2h-6.62zm10.73-117.26V67.37h.52a22.79 22.79 0 0 0 7.86-2.52v29.48c-2.61-1.33-5.39-2.73-8.38-4.04zm15.88-59.6a22.17 22.17 0 0 1 1.9 20.31 21.56 21.56 0 0 1-16.34 13.42 18.94 18.94 0 0 1-15.07-3.62 20 20 0 0 1-7.9-13.65c-.72-8.56 3.44-16.57 10.33-19.92a17.31 17.31 0 0 1 4.93-1.35 16.29 16.29 0 0 1 16.58 8.8c3.26 6.53 2.31 13.43-2.52 18.45a13.87 13.87 0 0 1-8 3.83 12.93 12.93 0 0 1-5.22-.41 12.09 12.09 0 0 1-8.45-8.66c-1.36-5.49.93-11.17 5.42-13.49a9.64 9.64 0 0 1 3.09-.91 9.76 9.76 0 0 1 7.29 2.12 8.72 8.72 0 0 1 2.54 7.86 7 7 0 0 1-4.4 5.48 5.61 5.61 0 0 1-5.86-1.08 5.32 5.32 0 0 1-.62-5.23 2.74 2.74 0 0 1 3.08-1c.58.42 1.21 1.11 1.18 1.44s-.14 1.19-.41 1.22h-.12a1.39 1.39 0 0 1-.64-.15.43.43 0 0 1 .09.11l-1.53.76.05.11c.18.32 1.4 2.48 3.65 2.21a4.81 4.81 0 0 0 2.72-1.45c1.79-1.69 1.6-5.48-.37-7.77a6.78 6.78 0 0 0-5.24-2.76 8.16 8.16 0 0 0-6.11 3c-3.1 3.67-2.22 8-.94 11v.11a10.21 10.21 0 0 0 10.15 5.39 10.32 10.32 0 0 0 2.57-.65 12.87 12.87 0 0 0 7.55-8.13 13 13 0 0 0-1.54-10.81 14.41 14.41 0 0 0-9.19-6.38A14.58 14.58 0 0 0 95.9 31a15.92 15.92 0 0 0-6.46 12.7A17.77 17.77 0 0 0 95.7 58c3.9 3.23 9.27 4.29 16 3.16h.13c9.38-2.84 15.07-13.57 12.69-23.91-1.76-7.32-6.28-10-12-12.79a23.4 23.4 0 0 0-4-1.23V18.4a24.11 24.11 0 0 1 6.14 3.05 31.08 31.08 0 0 1 9.69 9.24zm-7.77-12a95.072 95.072 0 0 0-8.11-4.25V9.79h8.11zm-84.94-8.9v10.07A63.39 63.39 0 0 0 25 24.68V9.79zM17.5 187.89a22.22 22.22 0 0 1-1.91-20.35 21.56 21.56 0 0 1 16.35-13.41A18.93 18.93 0 0 1 47 157.77a20 20 0 0 1 7.9 13.66c.72 8.55-3.44 16.57-10.34 19.92a17.48 17.48 0 0 1-4.92 1.35 16.32 16.32 0 0 1-16.58-8.8c-3.26-6.53-2.31-13.44 2.52-18.45a13.89 13.89 0 0 1 8-3.84 13.25 13.25 0 0 1 5.21.41 12.09 12.09 0 0 1 8.45 8.67c1.36 5.49-.92 11.17-5.41 13.49a9.9 9.9 0 0 1-3.09.91 9.79 9.79 0 0 1-7.29-2.09 8.73 8.73 0 0 1-2.54-7.87 7 7 0 0 1 4.4-5.48 5.61 5.61 0 0 1 5.86 1.08 5.32 5.32 0 0 1 .62 5.23 2.76 2.76 0 0 1-3.08 1c-.58-.42-1.21-1.12-1.18-1.44s.14-1.19.41-1.22a.24.24 0 0 1 .12 0 1.53 1.53 0 0 1 .64.15.43.43 0 0 1-.09-.11l1.52-.76-.05-.11c-.17-.33-1.39-2.49-3.65-2.22a4.91 4.91 0 0 0-2.71 1.46c-1.79 1.69-1.61 5.48.36 7.77a6.81 6.81 0 0 0 5.25 2.76 8.17 8.17 0 0 0 6.11-3.05c3.09-3.66 2.22-8 .94-10.95l-.06-.11a10.2 10.2 0 0 0-10.14-5.4 10.68 10.68 0 0 0-2.57.66 12.83 12.83 0 0 0-7.55 8.12 13 13 0 0 0 1.54 10.81 14.43 14.43 0 0 0 9.23 6.4A14.59 14.59 0 0 0 46 187.53a15.94 15.94 0 0 0 6.46-12.66 17.77 17.77 0 0 0-6.27-14.32c-3.89-3.22-9.26-4.28-16-3.15h-.12c-9.4 2.87-15.07 13.6-12.71 23.94 1.75 7.31 6.28 10 12 12.78a23.75 23.75 0 0 0 2.36.84v4a38.21 38.21 0 0 1-4.47-1.96 28.34 28.34 0 0 1-9.75-9.11zM25 200a41.75 41.75 0 0 0 6.74 3.76v5.7H25z" fill="#3f4658" data-name="Layer 1"/></g></svg>